{
  "asset": {
    "version": "2.0",
    "generator": "Original Game Design signal-wedge fixture"
  },
  "scene": 0,
  "scenes": [
    {
      "nodes": [
        0
      ]
    }
  ],
  "nodes": [
    {
      "name": "SignalWedge",
      "mesh": 0
    }
  ],
  "meshes": [
    {
      "primitives": [
        {
          "attributes": {
            "POSITION": 0
          }
        }
      ]
    }
  ],
  "buffers": [
    {
      "byteLength": 36,
      "uri": "absent.bin"
    }
  ],
  "bufferViews": [
    {
      "buffer": 0,
      "byteLength": 36,
      "target": 34962
    }
  ],
  "accessors": [
    {
      "bufferView": 0,
      "componentType": 5126,
      "count": 3,
      "type": "VEC3",
      "min": [
        -0.5,
        0,
        0
      ],
      "max": [
        0.5,
        0.75,
        0
      ]
    }
  ]
}
